<svg xmlns="http://www.w3.org/2000/svg" viewBox="0 0 100 100" role="img" aria-labelledby="constraintlab-logo-title">
  <title id="constraintlab-logo-title">ConstraintLab</title>
  <g fill="#205f50">
    <path d="M76 42H24a2 2 0 0 0-2 2v30a6 6 0 0 0 6 6h44a6 6 0 0 0 6-6V44a2 2 0 0 0-2-2ZM50 46.1a14.88 14.88 0 0 1 8.24 2.5L37.6 69.24A14.78 14.78 0 0 1 35.1 61 14.94 14.94 0 0 1 50 46.1Zm0 29.8a14.74 14.74 0 0 1-8.13-2.44l20.59-20.59A14.74 14.74 0 0 1 64.9 61 14.94 14.94 0 0 1 50 75.9Z"/>
    <path d="M72 26h-5v-2a4 4 0 0 0-8 0v2H41v-2a4 4 0 0 0-8 0v2h-5a6 6 0 0 0-6 6v2a2 2 0 0 0 2 2h52a2 2 0 0 0 2-2v-2a6 6 0 0 0-6-6Z"/>
  </g>
</svg>
